#!OML:ASF I:\Actors\actors\Patient Classification 1\Patient 1\Session 1\Subject1.ASF
:FULLY-SPECIFIED
:DEGREES
788
root 0.833091 17.551 7.99158 12.8136 -4.43277 -7.91879
lowerback 3.94711 1.75334 6.22264
upperback -7.40163 3.18776 3.05566
thorax -9.96214 1.21697 -0.603441
lowerneck -12.4218 -4.00701 -2.83721
upperneck 21.7168 -5.53119 2.34633
head 8.9957 -2.58474 0.638633
rclavicle 1.78471e-014 -2.0276e-014
rhumerus -8.92406 29.3859 -94.6676
rradius 72.1651
rwrist 44.6548
rhand -14.0239 -63.1826
rfingers 7.12502
rthumb 12.106 -267.188
lclavicle 1.78471e-014 -2.0276e-014
lhumerus -14.4346 -18.8872 99.3215
lradius 61.6854
lwrist -40.1562
lhand -43.7971 -19.0739
lfingers 7.12502
lthumb -16.6259 10.234
rfemur -11.6371 23.2231 18.9231
rtibia 5.8011
rfoot -12.2705 -26.1428
rtoes 3.03441
lfemur -5.90819 -25.5435 -10.2079
ltibia 0.199887
lfoot -12.1742 38.5155
ltoes 3.52899
789
root 0.835223 17.5513 7.99121 12.8443 -4.53784 -7.93183
lowerback 3.9485 1.78481 6.28351
upperback -7.421 3.2342 3.02444
thorax -9.9778 1.23268 -0.675939
lowerneck -12.4973 -3.9859 -2.90917
upperneck 21.7615 -5.52603 2.51854
head 9.0325 -2.56868 0.707641
rclavicle -1.61699e-014 -8.15017e-014
rhumerus -8.89685 29.5856 -94.6776
rradius 72.0267
rwrist 44.8033
rhand -14.0606 -63.1137
rfingers 7.12502
rthumb 12.0707 -267.254
lclavicle -1.61699e-014 -8.15017e-014
lhumerus -14.7307 -19.2413 99.1594
lradius 62.6246
lwrist -38.9043
lhand -41.9294 -18.2475
lfingers 7.12502
lthumb -14.8271 11.202
rfemur -11.6066 23.3571 18.8885
rtibia 5.63792
rfoot -12.2982 -26.2079
rtoes 3.09121
lfemur -5.91811 -25.6709 -10.2048
ltibia 0.215627
lfoot -12.3381 38.6887
ltoes 3.79184
790
root 0.83718 17.5513 7.99232 12.8496 -4.61527 -7.97068
lowerback 3.94589 1.78232 6.37467
upperback -7.40604 3.23621 3.01195
thorax -9.95492 1.22683 -0.739662
lowerneck -12.5304 -3.9206 -2.83292
upperneck 21.6941 -5.44903 2.52101
head 9.01077 -2.52632 0.704703
rclavicle -4.23536e-014 -7.15625e-015
rhumerus -8.71121 29.7751 -94.6668
rradius 71.938
rwrist 44.7758
rhand -13.6529 -63.1921
rfingers 7.12502
rthumb 12.4638 -267.2
lclavicle -4.23536e-014 -7.15625e-015
lhumerus -15.1632 -19.5625 98.7952
lradius 64.0817
lwrist -37.9389
lhand -39.4959 -17.2123
lfingers 7.12502
lthumb -12.4818 12.3949
rfemur -11.4988 23.4895 18.9062
rtibia 5.41
rfoot -12.2746 -26.3158
rtoes 3.1516
lfemur -5.89903 -25.9983 -10.197
ltibia 0.264374
lfoot -12.6872 39.0134
ltoes 4.52588
791
root 0.837546 17.5517 7.9937 12.8087 -4.6596 -8.00988
lowerback 3.99565 1.76374 6.46901
upperback -7.39373 3.22149 2.99253
thorax -9.96694 1.21115 -0.812383
lowerneck -12.5153 -3.83243 -2.76895
upperneck 21.6077 -5.34878 2.57009
head 8.97464 -2.46986 0.723359
rclavicle 2.10588e-015 -1.59028e-015
rhumerus -8.46217 29.8043 -94.6531
rradius 71.9039
rwrist 44.4294
rhand -13.0893 -63.2496
rfingers 7.12502
rthumb 13.0071 -267.176
lclavicle 2.10588e-015 -1.59028e-015
lhumerus -15.8308 -20.0412 98.2803
lradius 66.0548
lwrist -37.1742
lhand -36.8639 -15.8685
lfingers 7.12502
lthumb -9.94334 13.8767
rfemur -11.3163 23.6102 18.9775
rtibia 5.18403
rfoot -12.1708 -26.4456
rtoes 2.89387
lfemur -5.81761 -26.1505 -10.2063
ltibia 0.283203
lfoot -12.7873 39.1759
ltoes 4.80562
792
root 0.832512 17.5525 7.99568 12.8008 -4.83772 -8.06603
lowerback 4.05582 1.79792 6.47186
upperback -7.41319 3.27305 2.97191
thorax -10.0205 1.23299 -0.844246
lowerneck -12.5648 -3.72854 -2.79765
upperneck 21.6421 -5.24527 2.77459
head 8.99931 -2.40116 0.808502
rclavicle -1.05977e-014 -1.59028e-014
rhumerus -8.29968 29.8782 -94.6707
rradius 71.8718
rwrist 44.1349
rhand -12.687 -63.2195
rfingers 7.12502
rthumb 13.3949 -267.231
lclavicle -1.05977e-014 -1.59028e-014
lhumerus -16.7062 -20.6258 97.5841
lradius 68.3094
lwrist -36.3131
lhand -34.5573 -15.617
lfingers 7.12502
lthumb -7.71746 14.2222
rfemur -11.2319 23.7593 19.0728
rtibia 5.07901
rfoot -12.0557 -26.4364
rtoes 2.50815
lfemur -5.68354 -25.9786 -10.1792
ltibia 0.191748
lfoot -12.7177 39.1721
ltoes 4.86717
793
root 0.82124 17.5547 7.99907 12.8056 -5.30013 -8.12814
lowerback 4.10474 1.91913 6.29933
upperback -7.40934 3.42451 2.96539
thorax -10.0433 1.31885 -0.775867
lowerneck -12.7065 -3.60593 -2.89352
upperneck 21.771 -5.12812 3.08932
head 9.07803 -2.31778 0.942184
rclavicle -1.31571e-014 1.98785e-015
rhumerus -8.18911 30.058 -94.7143
rradius 71.7851
rwrist 44.2695
rhand -12.3133 -62.2748
rfingers 7.12502
rthumb 13.755 -268.2
lclavicle -1.31571e-014 1.98785e-015
lhumerus -17.6473 -21.1103 96.5848
lradius 70.6901
lwrist -35.6458
lhand -32.8672 -17.1338
lfingers 7.12502
lthumb -6.08602 12.7587
rfemur -11.2684 24.0257 19.1369
rtibia 5.11555
rfoot -11.9934 -26.2301
rtoes 2.27144
lfemur -5.40566 -25.7516 -10.1839
ltibia -0.0169746
lfoot -12.8733 39.3307
ltoes 5.34173
794
root 0.81173 17.5567 8.00327 12.8369 -5.80749 -8.13189
lowerback 4.11109 2.02952 6.12393
upperback -7.40419 3.55272 2.91328
thorax -10.038 1.39236 -0.750271
lowerneck -12.8681 -3.46292 -3.06468
upperneck 21.9462 -5.00389 3.55731
head 9.18218 -2.22004 1.14214
rclavicle -5.12367e-014 -1.15295e-014
rhumerus -8.0897 30.2766 -94.8134
rradius 71.7304
rwrist 44.5604
rhand -12.794 -62.149
rfingers 7.12502
rthumb 13.2918 -268.295
lclavicle -5.12367e-014 -1.15295e-014
lhumerus -18.6452 -21.4926 95.1673
lradius 73.1478
lwrist -35.618
lhand -32.1762 -19.5702
lfingers 7.12502
lthumb -5.41886 10.3405
rfemur -11.3898 24.2355 19.0895
rtibia 5.1972
rfoot -11.8988 -25.9457
rtoes 1.94568
lfemur -5.15686 -25.6686 -10.2737
ltibia -0.19199
lfoot -13.2823 39.6628
ltoes 6.08343
795
root 0.810923 17.5555 8.00935 12.9014 -5.99673 -8.06671
lowerback 4.03033 2.00876 6.16181
upperback -7.4219 3.51184 2.80679
thorax -10.0021 1.3653 -0.876795
lowerneck -12.8525 -3.16505 -2.55284
upperneck 22.0509 -4.70671 3.55072
head 9.19113 -2.03878 1.09046
rclavicle -2.31522e-014 -1.09332e-014
rhumerus -8.01064 30.5119 -94.9215
rradius 71.7654
rwrist 44.7136
rhand -12.8368 -62.0994
rfingers 7.12502
rthumb 13.2505 -268.342
lclavicle -2.31522e-014 -1.09332e-014
lhumerus -19.7122 -21.7596 93.3568
lradius 75.6233
lwrist -36.1586
lhand -33.0835 -22.4725
lfingers 7.12502
lthumb -6.29483 7.41398
rfemur -11.4891 24.2061 18.9649
rtibia 5.20779
rfoot -11.7916 -25.7545
rtoes 1.50587
lfemur -5.15012 -25.665 -10.3774
ltibia -0.184642
lfoot -13.5519 39.8059
ltoes 6.44734
796
root 0.815786 17.5526 8.01483 12.9576 -5.92574 -8.01458
lowerback 3.93611 1.91165 6.37024
upperback -7.44113 3.38261 2.70711
thorax -9.95888 1.2827 -1.07934
lowerneck -13.0417 -2.98468 -2.56385
upperneck 22.2888 -4.50026 3.72513
head 9.30669 -1.9195 1.17446
rclavicle -1.56543e-014 2.90226e-014
rhumerus -7.94413 30.7809 -94.9705
rradius 71.8117
rwrist 44.5032
rhand -12.9931 -62.0822
rfingers 7.12502
rthumb 13.0999 -268.349
lclavicle -1.56543e-014 2.90226e-014
lhumerus -20.7465 -21.922 91.2879
lradius 77.9582
lwrist -36.8356
lhand -35.1478 -25.5689
lfingers 7.12502
lthumb -8.28745 4.24852
rfemur -11.5333 24.1447 18.8686
rtibia 5.17011
rfoot -11.7772 -25.7542
rtoes 1.37827
lfemur -5.33562 -25.619 -10.3838
ltibia -0.0101296
lfoot -13.4876 39.7002
ltoes 6.14891
797
root 0.815108 17.5524 8.01781 12.9951 -6.16265 -7.99701
lowerback 3.96086 1.92832 6.42312
upperback -7.46922 3.40546 2.61424
thorax -9.99527 1.28365 -1.21142
lowerneck -13.1907 -2.8262 -2.65847
upperneck 22.5632 -4.33895 4.02696
head 9.43419 -1.81453 1.31266
rclavicle 1.31074e-015 -1.5704e-014
rhumerus -7.96322 31.1573 -95.072
rradius 71.827
rwrist 44.0967
rhand -12.9123 -62.0885
rfingers 7.12502
rthumb 13.1778 -268.348
lclavicle 1.31074e-015 -1.5704e-014
lhumerus -21.6932 -21.9956 88.9213
lradius 79.9756
lwrist -37.3926
lhand -37.1069 -28.244
lfingers 7.12502
lthumb -10.1778 1.48977
rfemur -11.6633 24.1993 18.7966
rtibia 5.24917
rfoot -11.682 -25.5715
rtoes 1.09379
lfemur -5.39016 -25.4275 -10.4055
ltibia 0.119497
lfoot -13.5434 39.741
ltoes 6.00714
798
root 0.806829 17.5547 8.02327 13.01 -6.83189 -7.9882
lowerback 4.00388 2.0704 6.22666
upperback -7.46263 3.57506 2.52942
thorax -10.0051 1.37689 -1.21503
lowerneck -13.1782 -2.64452 -2.69909
upperneck 22.6108 -4.14903 4.32131
head 9.44876 -1.69707 1.44483
rclavicle 1.53841e-014 5.76476e-015
rhumerus -7.96568 31.6038 -95.1853
rradius 71.8308
rwrist 43.8848
rhand -12.6033 -62.1097
rfingers 7.12502
rthumb 13.4755 -268.346
lclavicle 1.53841e-014 5.76476e-015
lhumerus -22.4915 -21.8549 86.1965
lradius 81.657
lwrist -37.5616
lhand -38.8111 -31.2785
lfingers 7.12502
lthumb -11.8215 -1.63221
rfemur -11.8406 24.2979 18.7384
rtibia 5.41569
rfoot -11.4699 -25.0341
rtoes 0.554456
lfemur -5.14074 -25.1412 -10.5643
ltibia 0.0773798
lfoot -13.8605 40.053
ltoes 6.31927
799
root 0.802022 17.5547 8.03132 13.0863 -7.40356 -8.03521
lowerback 3.9057 2.17357 6.12914
upperback -7.444 3.68812 2.45591
thorax -9.91695 1.43899 -1.24821
lowerneck -13.2635 -2.3986 -2.38508
upperneck 22.8545 -3.92654 4.47735
head 9.53858 -1.54555 1.47379
rclavicle 2.61526e-015 2.98177e-016
rhumerus -7.90558 32.0487 -95.2515
rradius 71.8323
rwrist 43.8712
rhand -12.6935 -61.8685
rfingers 7.12502
rthumb 13.3886 -268.582
lclavicle 2.61526e-015 2.98177e-016
lhumerus -23.1145 -21.4729 83.2114
lradius 82.9448
lwrist -37.1711
lhand -40.5628 -35.2569
lfingers 7.12502
lthumb -13.5103 -5.71517
rfemur -12.0463 24.3308 18.7166
rtibia 5.53159
rfoot -11.3515 -24.4884
rtoes 0.521703
lfemur -4.98053 -24.9934 -10.6305
ltibia 0.0574879
lfoot -14.1957 40.4126
ltoes 6.62778
